<svg width="56" height="56" xmlns="http://www.w3.org/2000/svg">
<g><rect fill="#e5e5e5" height="62.62973" rx="2.21" stroke="#f2f2f2" stroke-width="1.3" width="62.882054" x="-.65" y="-.65"></rect><path d="m0 52.7251351h61.5567568v7.2724325c0 .7357328-.6002773 1.3321621-1.3407568 1.3321621h-58.87524324c-.7371989 0-1.33612029-.591325-1.34075676-1.3237838z" fill="#ff5547"></path><g fill="#0d6ae5"><path d="m31.6131892 58.59c-4.6547027 0-8.9130811-3.0581081-11.9909189-8.6213514-2.8248649-5.1024324-4.3848649-11.8302702-4.3848649-18.9435135 0-7.1132432 1.56-13.841081 4.3848649-18.9351351 3.0778378-5.56324324 7.3615135-8.62972973 11.9909189-8.62972973 1.3016966.07578509 2.3182385 1.14672645 2.3182385 2.4422973s-1.0165419 2.36651221-2.3182385 2.44229729c-2.7827027 0-5.5063784 2.17000004-7.681946 6.09945944-2.4369729 4.3902703-3.7777297 10.2802703-3.7777297 16.5556757s1.3407568 12.1989189 3.7777297 16.5891892c2.1755676 3.9294594 4.8992433 6.0910811 7.681946 6.0910811s5.4895135-2.1364865 7.6819459-6.065946c2.4285406-4.3902702 3.7692973-10.2802702 3.7692973-16.5891892.0762741-1.2933524 1.1541247-2.303378 2.4580541-2.303378s2.38178 1.0100256 2.458054 2.303378c0 7.1132433-1.56 13.8410811-4.3764324 18.9435135-3.0862703 5.5632433-7.3446486 8.6213514-11.9909189 8.6213514z"></path><path d="m0 42.2689189c7.69555051-1.8482681 15.5398527-3.0201745 23.4421622-3.5021621 2.7236756-.1675676 5.5063783-.2513514 8.2469189-.2513514 7.0047838.0033331 13.9989677.5411304 20.9208648 1.6086487l2.4285406.377027-.7589189 4.8343243-2.4285406-.377027c-6.6705021-1.0313116-13.4111704-1.5495173-20.1619459-1.55-2.6477838 0-5.3208649.0754054-7.9517838.2345946-8.0092906.489131-15.95571224 1.7148241-23.7372973 3.6613513"></path><path d="m0 30.4386486c7.71980726-1.8318112 15.5865318-2.9868737 23.5096216-3.4518918 2.5803243-.1424325 5.2112433-.2262163 7.8084325-.2262163 3.7102702 0 7.4711351.1591892 11.1898378.4608109h.4722162l1.0709189.0837837h.0758919c2.3357838.2178379 4.7558919.5027027 7.1928649.8378379l1.4841081.2094594 1.6864865.2681081 2.6056216.4691892 1.9816216.2932433c.1920405.0450802.3214498.2236632.3035676.4189189l-.3372973 4.6248649-2.8838919-.5362163c-.8432432-.1591891-1.6864865-.31-2.6393514-.4775675l-1.6864864-.2597298-2.5297298-.377027-2.2936216-.2932432-1.6864865-.175946c-9.3523879-1.0053446-18.7866391-1.0053446-28.139027 0-5.7942461.6702383-11.53592059 1.7311536-17.1852973 3.1754054"></path><path d="m0 24.4062162c7.78724181-1.9206773 15.7361289-3.123878 23.7457297-3.5943243 2.5297298-.1424324 5.0594595-.2178378 7.5891892-.2178378 1.1636757 0 4.056.0586486 5.5991352.0921621.2579092.0017493.4758618-.1895413.5059459-.444054l.4806486-4.1891892c.0046738-.0480674-.0107419-.0959306-.042634-.1323714s-.0774568-.0582555-.1260146-.0603313c-2.1334054-.1005406-4.2921081-.1508108-6.4170811-.1508108-2.614054 0-5.2534054.0754054-7.8505946.2262162-7.9148388.4537924-15.77366151 1.6033302-23.4843243 3.4351351"></path><path d="m33.8983784 58.6486486c-11.6754639 1.0191139-22.7420133-5.3397593-27.67617661-15.9028158-4.93416331-10.5630566-2.67807046-23.0656083 5.64223061-31.2674544 8.7999802-8.73666236 22.3579138-10.62985037 33.2406487-4.64162164 3.9081901 2.17321726 7.236132 5.24425554 9.7057297 8.95648644.0440458.0639821.0599469.1430358.0440349.2189237-.015912.075888-.0622627.1420557-.1283592.1832385l-3.7777297 2.4297297c-.1401169.0855598-.3233249.0446951-.4131892-.0921621-4.3111-6.4434258-11.6317173-10.25750677-19.4176453-10.11669767s-14.9620007 4.21706387-19.0342466 10.81210307c-1.2630334 1.9949201-2.17815471 4.1873298-2.70681084 6.4848648-1.85037254 7.677653.44743741 15.7590969 6.06757734 21.3397918 5.62014 5.5806949 13.7551278 7.8588261 21.4811794 6.0156136 2.3133992-.5220216 4.5204884-1.4314972 6.5267027-2.6894594 6.7687335-4.1238665 10.892144-11.4482863 10.8862703-19.3372973v-1.5081081l3.7355676-.2094595 1.248.1843243c.0632011.0084457.1096895.0623169.1096895.1256757v1.3991892c.0316979 14.4096247-11.0801933 26.4274645-25.5334733 27.6151351z"></path></g></g>
</svg>